<?xml version="1.0" encoding="utf-8"?>
<!-- Generator: Adobe Illustrator 21.0.0, SVG Export Plug-In . SVG Version: 6.00 Build 0)  -->
<svg version="1.1"
	 id="svg2985" inkscape:version="0.48.2 r9819" sodipodi:docname="portal.png" xmlns:cc="http://creativecommons.org/ns#" xmlns:dc="http://purl.org/dc/elements/1.1/" xmlns:inkscape="http://www.inkscape.org/namespaces/inkscape" xmlns:rdf="http://www.w3.org/1999/02/22-rdf-syntax-ns#" xmlns:sodipodi="http://sodipodi.sourceforge.net/DTD/sodipodi-0.dtd" xmlns:svg="http://www.w3.org/2000/svg"
	 xmlns="http://www.w3.org/2000/svg" xmlns:xlink="http://www.w3.org/1999/xlink" x="0px" y="0px" viewBox="0 0 399 282"
	 style="enable-background:new 0 0 399 282;" xml:space="preserve">
<style type="text/css">
	.st0{fill:#FFFFFF;}
</style>
<g>
	<path d="M0,282V0h399v282H0z"/>
</g>
<g id="Man">
	<path id="Head" class="st0" d="M179,61.1c0-11.5-8.6-20.2-20.2-20.2c-11.1,0-20.1,8.8-20.2,19.8C138.5,72,147.6,81,159,81
		C170.2,81,179,72.3,179,61.1z"/>
	<path id="Body" class="st0" d="M207.6,58.9c3.2,3,6.2,5.9,9.2,8.8c3.4,3.2,6.7,6.5,10.2,9.6c1.7,1.5,3.8,2.2,6,1.1
		c2.3-1.1,3.5-3.1,3.8-5.5c0.3-2.4-1.1-4.1-2.7-5.6c-7.4-7-14.7-14-22.2-20.9c-3.7-3.4-5.8-3.3-9.3,0.3c-3.7,3.8-7.3,7.7-11,11.6
		c-9.5,9.8-19,19.7-28.5,29.5c-1.4,1.5-2.6,2.9-2.9,5.1c-0.8,4.7-2.1,9.4-2.9,14.2c-0.5,3.3-2,5.8-4.3,8.2
		c-5.3,5.3-10.4,10.8-15.4,16.3c-2.3,2.5-2.2,5.3-0.1,7.6c2.2,2.5,5.3,2.9,8.1,0.9c1.2-0.9,2.2-2,3.3-3.1
		c5.1-5.3,10.1-10.7,15.3-15.8c2.8-2.7,4.6-6.2,5.1-10c0.6-4.3,1.7-8.6,3.5-13.2c8.8,8.5,17.2,16.5,25.3,24.3
		c0.7,2.6-0.3,4.3-0.4,6.3c-0.1,6.3-1.1,12.5-3.4,18.4c-2,5.2-1.3,8.6,2,11.7c8.7,8.2,17.3,16.6,26,24.9c0.7,0.7,1.4,1.4,2.3,1.9
		c2.5,1.5,5.7,1,7.8-1.1c2.1-2.1,2.4-4.5,0.8-7.3c-0.7-1.1-1.6-2.2-2.5-3.1c-2-2-4.2-3.8-6.2-5.7c-6-5.7-12-11.4-18.1-17.3
		c4.1-12.1,8-23.9,12-35.8c2.1,0.9,3.2,2.4,4.5,3.6c5.5,5.1,10.8,10.3,16.2,15.5c2.1,2,4.3,3.7,7.3,3.6c3.5-1,5.3-3.6,6.2-6.8
		c2.6-8.6,5.3-17.2,7.7-25.8c1.2-4.2,0.1-6.2-3.4-7.6c-3.3-1.3-5.9-0.2-8,3.1c-1.1,1.9-1.7,3.9-2.3,6c-1,3.8-2.1,7.6-3.3,12.2
		c-16.6-15.7-32.6-30.8-48.7-46C199,68,203.2,63.5,207.6,58.9z"/>
</g>
<g id="Ring_and_Arrow">
	<path id="Ring" class="st0" d="M294.7,243.2c1.1-4.1-1-6.3-3.8-8.2c-4.4-2.8-9.2-4.6-14.2-6c-17.9-4.9-36.3-6.5-54.8-7.7
		c-0.8,0-1.6,0.1-2.5,0.2c-1.3,2.1-3.2,3.7-4,6.7c2.6,0.2,4.7,0.4,6.8,0.5c14,0.7,28,2.2,41.6,5.7c2.5,0.6,5,1.6,7.3,2.8
		c1.8,0.9,3.6,1.9,4,4.1c-1.5,3.1-1.7,3.4-4.5,4.7c-3.6,1.6-7.3,2.8-11.1,3.6c-27.6,5.7-55.5,6.1-83.5,4.8
		c-10.6-0.5-21.3-1.6-31.8-3.4c-6.1-1.1-12.1-2.5-17.7-5c-2.1-1-4.3-2-4.6-4.7c0.8-3,3.6-3.9,5.9-4.9c2.3-1,4.6-1.8,7-2.4
		c12.4-3,25-4.5,37.7-5.2c2.8-0.1,5.6-0.1,8.5-1.1c-1-2.6-2.3-4.6-4.2-6.3c-12.7,0.8-25.3,1.8-37.8,4c-8.5,1.5-17,3.2-25.1,6.6
		c-2.9,1.2-5.8,2.5-8.1,4.9c-2.6,2.7-2.7,5.2-0.3,8c1.1,1.3,2.4,2.3,3.9,3.1c2.9,1.6,6,2.9,9.2,3.9c14.7,4.8,29.9,6.5,45.2,7.9
		c15.9,1.5,32,1.4,48,1.2c16.1-0.2,32.1-1.6,48-4.3c8.9-1.5,17.8-3.2,26.2-6.9C289.4,248.4,292.5,246.6,294.7,243.2z"/>
	<path id="Arrow" class="st0" d="M187.2,187.7c-1.1,7.6,0.7,14.9-0.9,22.5h-13.4c8.7,13.2,16.9,25.6,25.4,38.5
		c8.7-13,16.9-25.3,25-38.2c-4.8-0.9-9,0.1-13.6-0.9v-21.9H187.2z"/>
</g>
</svg>
